<mxfile host="app.diagrams.net" agent="Mozilla/5.0 (Windows NT 10.0; Win64; x64) AppleWebKit/537.36 (KHTML, like Gecko) Chrome/141.0.0.0 Safari/537.36 Edg/141.0.0.0" version="28.2.5">
  <diagram name="Página-1" id="WTjkJtflF5_UklCVAAy8">
    <mxGraphModel dx="1418" dy="786" grid="1" gridSize="10" guides="1" tooltips="1" connect="1" arrows="1" fold="1" page="1" pageScale="1" pageWidth="827" pageHeight="1169" math="0" shadow="0">
      <root>
        <mxCell id="0" />
        <mxCell id="1" parent="0" />
        <mxCell id="ESoPRkpuo1TulNnM-gh9-1" value="i" style="ellipse;whiteSpace=wrap;html=1;" vertex="1" parent="1">
          <mxGeometry x="384" y="20" width="60" height="50" as="geometry" />
        </mxCell>
        <mxCell id="ESoPRkpuo1TulNnM-gh9-2" value="insira os sandes vendidos&amp;nbsp;" style="shape=parallelogram;perimeter=parallelogramPerimeter;whiteSpace=wrap;html=1;fixedSize=1;" vertex="1" parent="1">
          <mxGeometry x="284.13" y="340" width="170" height="60" as="geometry" />
        </mxCell>
        <mxCell id="ESoPRkpuo1TulNnM-gh9-3" value="int sandes, bolos, refrigerantes, café" style="rounded=0;whiteSpace=wrap;html=1;" vertex="1" parent="1">
          <mxGeometry x="301" y="130" width="226" height="60" as="geometry" />
        </mxCell>
        <mxCell id="ESoPRkpuo1TulNnM-gh9-4" value="&lt;div&gt;float lucro = ((preco_sandes - sandes) * sandes_venda) + ((preco_cafe - cafe) * cafe_venda) + ((preco_refrigerante - refrigerante) * refrigerante_venda)&lt;/div&gt;&lt;div&gt;&lt;span style=&quot;white-space: normal;&quot;&gt;&lt;span style=&quot;white-space:pre&quot;&gt;&#x9;&lt;/span&gt;+ ((preco_bolos - bolos) * bolos_venda);&lt;/span&gt;&lt;/div&gt;" style="rounded=0;whiteSpace=wrap;html=1;" vertex="1" parent="1">
          <mxGeometry x="164.13" y="750" width="410" height="140" as="geometry" />
        </mxCell>
        <mxCell id="ESoPRkpuo1TulNnM-gh9-5" value="insira os bolos vendidos" style="shape=parallelogram;perimeter=parallelogramPerimeter;whiteSpace=wrap;html=1;fixedSize=1;" vertex="1" parent="1">
          <mxGeometry x="275.13" y="440" width="190" height="60" as="geometry" />
        </mxCell>
        <mxCell id="ESoPRkpuo1TulNnM-gh9-6" value="insira os refrigeramtes vendidos&amp;nbsp;" style="shape=parallelogram;perimeter=parallelogramPerimeter;whiteSpace=wrap;html=1;fixedSize=1;" vertex="1" parent="1">
          <mxGeometry x="263.88" y="540" width="212.5" height="60" as="geometry" />
        </mxCell>
        <mxCell id="ESoPRkpuo1TulNnM-gh9-7" value="insira os cafe vendidos" style="shape=parallelogram;perimeter=parallelogramPerimeter;whiteSpace=wrap;html=1;fixedSize=1;" vertex="1" parent="1">
          <mxGeometry x="253.88" y="640" width="200.25" height="60" as="geometry" />
        </mxCell>
        <mxCell id="ESoPRkpuo1TulNnM-gh9-9" value="std::cout &amp;lt;&amp;lt; &quot;Teve um lucro de: &quot; &amp;lt;&amp;lt; lucro; std::wcout &amp;lt;&amp;lt; &quot; euros&quot;;" style="shape=parallelogram;perimeter=parallelogramPerimeter;whiteSpace=wrap;html=1;fixedSize=1;" vertex="1" parent="1">
          <mxGeometry x="192.13" y="960" width="334.87" height="60" as="geometry" />
        </mxCell>
        <mxCell id="ESoPRkpuo1TulNnM-gh9-10" value="&lt;div&gt;const float sandes = 1, bolos = 0.8, refrigerante = 1.5, cafe = 0.6;&lt;/div&gt;&lt;div&gt;float preco_sandes, preco_bolos, preco_refrigerante, preco_cafe;&lt;/div&gt;&lt;div&gt;int sandes_venda, bolos_venda, refrigerante_venda, cafe_venda;&lt;/div&gt;" style="shape=parallelogram;perimeter=parallelogramPerimeter;whiteSpace=wrap;html=1;fixedSize=1;align=center;" vertex="1" parent="1">
          <mxGeometry x="210" y="210" width="401" height="80" as="geometry" />
        </mxCell>
      </root>
    </mxGraphModel>
  </diagram>
</mxfile>
